<?xml version="1.0" standalone="no"?>
<!DOCTYPE svg PUBLIC "-//W3C//DTD SVG 20010904//EN"
 "http://www.w3.org/TR/2001/REC-SVG-20010904/DTD/svg10.dtd">
<svg version="1.0" xmlns="http://www.w3.org/2000/svg"
 width="700.000000pt" height="700.000000pt" viewBox="0 0 700.000000 700.000000"
 preserveAspectRatio="xMidYMid meet">
<metadata>
Created by potrace 1.11, written by Peter Selinger 2001-2013
</metadata>
<g transform="translate(0.000000,700.000000) scale(0.100000,-0.100000)"
fill="#000000" stroke="none">
<path d="M6735 5745 c-84 -55 -378 -362 -505 -527 -8 -11 -33 -43 -56 -71 -89
-113 -246 -330 -346 -477 -96 -140 -305 -465 -332 -515 -6 -11 -44 -75 -85
-142 -72 -121 -74 -123 -109 -124 -21 0 -55 -2 -77 -4 -22 -2 -80 -6 -128 -10
-49 -3 -96 -8 -105 -10 -9 -1 -57 -6 -106 -10 -50 -4 -97 -8 -105 -10 -9 -1
-56 -6 -105 -10 -49 -4 -96 -8 -105 -10 -9 -1 -56 -6 -106 -10 -49 -4 -97 -8
-105 -10 -21 -4 -180 -20 -293 -30 -37 -4 -76 -8 -86 -10 -9 -2 -51 -6 -92
-10 -41 -3 -90 -8 -110 -10 -20 -2 -83 -9 -140 -15 -184 -19 -204 -21 -219
-25 -8 -2 -51 -7 -95 -10 -44 -3 -87 -8 -95 -10 -8 -2 -44 -6 -80 -10 -36 -3
-99 -10 -140 -15 -41 -5 -100 -12 -130 -15 -30 -3 -71 -7 -90 -10 -121 -15
-210 -26 -242 -30 -21 -3 -56 -7 -78 -10 -21 -3 -54 -8 -72 -10 -18 -2 -51 -7
-73 -10 -47 -8 -71 -11 -145 -20 -30 -4 -64 -9 -75 -11 -11 -2 -58 -9 -105
-14 -47 -6 -96 -13 -110 -15 -59 -9 -269 -31 -375 -40 -33 -3 -73 -7 -90 -10
-16 -2 -73 -7 -125 -11 -52 -3 -113 -8 -135 -10 -22 -2 -85 -6 -140 -9 -55 -3
-116 -8 -136 -10 -42 -5 -427 -16 -654 -20 -88 -1 -163 -3 -167 -4 -15 -2 -8
-38 10 -53 44 -38 82 -43 302 -42 218 1 540 11 595 18 17 3 62 7 100 10 39 4
86 8 105 11 19 2 64 7 100 10 36 3 99 10 140 15 41 5 100 12 130 15 30 3 71 8
90 10 19 2 62 7 95 10 33 3 74 8 90 10 17 2 57 7 90 10 33 3 94 10 135 15 41
5 100 12 130 15 30 3 71 8 90 10 19 2 60 7 90 10 30 3 71 8 90 10 19 2 60 7
90 10 30 4 66 8 80 10 29 4 113 13 185 20 66 6 144 16 166 20 10 2 53 7 96 10
43 4 85 9 94 10 15 3 16 -17 13 -208 -3 -239 -13 -572 -19 -662 -2 -33 -7 -99
-10 -147 -3 -48 -7 -95 -9 -105 -2 -10 -7 -54 -10 -98 -4 -44 -9 -91 -11 -105
-2 -14 -6 -45 -9 -70 -11 -86 -47 -365 -51 -390 -8 -61 -17 -127 -20 -155 -10
-102 -18 -172 -21 -188 -6 -36 -17 -195 -17 -267 0 -111 38 -169 91 -141 28
15 32 32 37 140 9 191 22 383 30 446 2 17 6 62 10 100 8 88 33 299 41 339 20
106 42 348 58 626 4 63 9 147 11 185 3 39 7 158 11 265 4 107 8 227 9 265 2
39 4 96 4 127 1 63 -1 61 104 73 110 12 136 15 217 24 47 6 108 13 135 16 53
6 98 11 180 20 28 3 66 7 85 10 49 6 133 14 215 20 39 3 84 7 100 10 17 2 71
7 120 10 50 4 101 8 115 10 14 3 66 8 115 11 50 4 99 8 110 9 11 1 65 5 120 9
55 5 116 10 135 12 19 2 77 6 128 10 l92 6 -31 -58 c-18 -33 -35 -63 -39 -69
-4 -5 -38 -66 -76 -135 -309 -567 -677 -1328 -841 -1738 l-45 -113 -38 108
c-89 257 -487 1208 -589 1412 -34 67 -73 96 -116 85 -29 -7 -35 -14 -41 -48
-3 -17 10 -45 43 -93 64 -93 142 -262 268 -579 59 -148 111 -278 116 -289 5
-11 65 -168 134 -348 176 -463 185 -483 237 -475 32 4 69 77 107 211 135 468
486 1221 920 1972 51 88 94 161 96 163 3 3 43 7 205 16 52 3 140 9 195 12 167
11 406 11 450 1 77 -18 159 15 150 60 -2 10 -4 21 -4 26 -2 21 -70 29 -246 29
-104 0 -239 -3 -300 -6 -345 -17 -377 -18 -369 -4 48 84 263 422 355 561 380
569 624 875 798 999 109 78 178 149 208 214 21 46 23 83 4 85 -3 0 -13 2 -21
4 -8 1 -38 -12 -65 -30z"/>
</g>
</svg>
